<svg width="245" height="295" viewBox="0 0 245 295" fill="none" xmlns="http://www.w3.org/2000/svg">
<rect width="3.2874" height="3.2874" transform="matrix(0.155061 -0.987905 0.99193 -0.126785 106.391 145.493)" fill="#27AAE1"/>
<rect width="3.2874" height="3.2874" transform="matrix(0.155061 -0.987905 0.99193 -0.126785 141.966 139.422)" fill="#27AAE1"/>
<rect width="3.2874" height="3.2874" transform="matrix(0.155061 -0.987905 0.99193 -0.126785 134.902 174.83)" fill="#27AAE1"/>
<rect width="3.2874" height="3.2874" transform="matrix(0.155061 -0.987905 0.99193 -0.126785 170.498 168.78)" fill="#27AAE1"/>
<rect width="3.2874" height="3.2874" transform="matrix(0.155061 -0.987905 0.99193 -0.126785 163.434 204.188)" fill="#27AAE1"/>
<rect width="3.2874" height="3.2874" transform="matrix(0.155061 -0.987905 0.99193 -0.126785 199.03 198.139)" fill="#27AAE1"/>
<rect width="3.2874" height="3.2874" transform="matrix(0.155061 -0.987905 0.99193 -0.126785 30.3756 219.368)" fill="#27AAE1"/>
<rect width="3.2874" height="3.2874" transform="matrix(0.155061 -0.987905 0.99193 -0.126785 65.9506 213.297)" fill="#27AAE1"/>
<rect width="3.2874" height="3.2874" transform="matrix(0.155061 -0.987905 0.99193 -0.126785 58.8866 248.705)" fill="#27AAE1"/>
<rect width="3.2874" height="3.2874" transform="matrix(0.155061 -0.987905 0.99193 -0.126785 94.4823 242.655)" fill="#27AAE1"/>
<rect width="3.2874" height="3.2874" transform="matrix(0.155061 -0.987905 0.99193 -0.126785 87.4183 278.063)" fill="#27AAE1"/>
<rect width="3.2874" height="3.2874" transform="matrix(0.155061 -0.987905 0.99193 -0.126785 123.014 272.014)" fill="#27AAE1"/>
<rect width="3.2874" height="3.2874" transform="matrix(0.155061 -0.987905 0.99193 -0.126785 146.631 100.809)" fill="#27AAE1"/>
<rect width="3.2874" height="3.2874" transform="matrix(0.155061 -0.987905 0.99193 -0.126785 182.206 94.738)" fill="#27AAE1"/>
<rect width="3.2874" height="3.2874" transform="matrix(0.155061 -0.987905 0.99193 -0.126785 175.142 130.146)" fill="#27AAE1"/>
<rect width="3.2874" height="3.2874" transform="matrix(0.155061 -0.987905 0.99193 -0.126785 210.738 124.096)" fill="#27AAE1"/>
<rect width="3.2874" height="3.2874" transform="matrix(0.155061 -0.987905 0.99193 -0.126785 203.674 159.505)" fill="#27AAE1"/>
<rect width="3.2874" height="3.2874" transform="matrix(0.155061 -0.987905 0.99193 -0.126785 239.27 153.455)" fill="#27AAE1"/>
<rect width="3.2874" height="3.2874" transform="matrix(0.155061 -0.987905 0.99193 -0.126785 70.6159 174.684)" fill="#27AAE1"/>
<rect width="3.2874" height="3.2874" transform="matrix(0.155061 -0.987905 0.99193 -0.126785 106.191 168.613)" fill="#27AAE1"/>
<rect width="3.2874" height="3.2874" transform="matrix(0.155061 -0.987905 0.99193 -0.126785 99.1268 204.021)" fill="#27AAE1"/>
<rect width="3.2874" height="3.2874" transform="matrix(0.155061 -0.987905 0.99193 -0.126785 134.723 197.971)" fill="#27AAE1"/>
<rect width="3.2874" height="3.2874" transform="matrix(0.155061 -0.987905 0.99193 -0.126785 127.658 233.38)" fill="#27AAE1"/>
<rect width="3.2874" height="3.2874" transform="matrix(0.155061 -0.987905 0.99193 -0.126785 163.254 227.33)" fill="#27AAE1"/>
<rect width="3.2874" height="3.2874" transform="matrix(0.155061 -0.987905 0.99193 -0.126785 27.3913 70.4929)" fill="#27AAE1"/>
<rect width="3.2874" height="3.2874" transform="matrix(0.155061 -0.987905 0.99193 -0.126785 62.9662 64.4216)" fill="#27AAE1"/>
<rect width="3.2874" height="3.2874" transform="matrix(0.155061 -0.987905 0.99193 -0.126785 55.9022 99.8301)" fill="#27AAE1"/>
<rect width="3.2874" height="3.2874" transform="matrix(0.155061 -0.987905 0.99193 -0.126785 91.4979 93.78)" fill="#27AAE1"/>
<rect width="3.2874" height="3.2874" transform="matrix(0.155061 -0.987905 0.99193 -0.126785 84.4339 129.188)" fill="#27AAE1"/>
<rect width="3.2874" height="3.2874" transform="matrix(0.155061 -0.987905 0.99193 -0.126785 120.03 123.139)" fill="#27AAE1"/>
<rect width="3.2874" height="3.2874" transform="matrix(0.155061 -0.987905 0.99193 -0.126785 15.4823 167.655)" fill="#27AAE1"/>
<rect width="3.2874" height="3.2874" transform="matrix(0.155061 -0.987905 0.99193 -0.126785 8.41824 203.063)" fill="#27AAE1"/>
<rect width="3.2874" height="3.2874" transform="matrix(0.155061 -0.987905 0.99193 -0.126785 44.0139 197.014)" fill="#27AAE1"/>
<rect width="3.2874" height="3.2874" transform="matrix(0.155061 -0.987905 0.99193 -0.126785 67.6315 25.8093)" fill="#27AAE1"/>
<rect width="3.2874" height="3.2874" transform="matrix(0.155061 -0.987905 0.99193 -0.126785 103.206 19.738)" fill="#27AAE1"/>
<rect width="3.2874" height="3.2874" transform="matrix(0.155061 -0.987905 0.99193 -0.126785 96.1425 55.1465)" fill="#27AAE1"/>
<rect width="3.2874" height="3.2874" transform="matrix(0.155061 -0.987905 0.99193 -0.126785 131.738 49.0964)" fill="#27AAE1"/>
<rect width="3.2874" height="3.2874" transform="matrix(0.155061 -0.987905 0.99193 -0.126785 124.674 84.5049)" fill="#27AAE1"/>
<rect width="3.2874" height="3.2874" transform="matrix(0.155061 -0.987905 0.99193 -0.126785 160.27 78.4551)" fill="#27AAE1"/>
<rect width="3.2874" height="3.2874" transform="matrix(0.155061 -0.987905 0.99193 -0.126785 27.1909 93.613)" fill="#27AAE1"/>
<rect width="3.2874" height="3.2874" transform="matrix(0.155061 -0.987905 0.99193 -0.126785 20.1268 129.021)" fill="#27AAE1"/>
<rect width="3.2874" height="3.2874" transform="matrix(0.155061 -0.987905 0.99193 -0.126785 55.7225 122.971)" fill="#27AAE1"/>
<rect width="3.2874" height="3.2874" transform="matrix(0.155061 -0.987905 0.99193 -0.126785 48.6585 158.38)" fill="#27AAE1"/>
<rect width="3.2874" height="3.2874" transform="matrix(0.155061 -0.987905 0.99193 -0.126785 84.2542 152.33)" fill="#27AAE1"/>
</svg>
