<svg width="652" height="702" viewBox="0 0 652 702" fill="none" xmlns="http://www.w3.org/2000/svg">
<path d="M542.848 247.741L526.263 259.625" stroke="#266EE3" stroke-opacity="0.1" stroke-width="1.6547" stroke-miterlimit="10" stroke-linecap="round" stroke-linejoin="round"/>
<path d="M600.193 206.65L569.553 228.606" stroke="#266EE3" stroke-opacity="0.1" stroke-width="1.6547" stroke-miterlimit="10" stroke-linecap="round" stroke-linejoin="round"/>
<path d="M548.189 209.269L432.935 292.055" stroke="#266EE3" stroke-opacity="0.1" stroke-width="1.6547" stroke-miterlimit="10" stroke-linecap="round" stroke-linejoin="round"/>
<path d="M607.221 167.17L583.608 183.889" stroke="#266EE3" stroke-opacity="0.1" stroke-width="1.6547" stroke-miterlimit="10" stroke-linecap="round" stroke-linejoin="round"/>
<path d="M465.263 234.246L363.783 306.961" stroke="#266EE3" stroke-opacity="0.1" stroke-width="1.6547" stroke-miterlimit="10" stroke-linecap="round" stroke-linejoin="round"/>
<path d="M618.465 124.468L510.24 202.017" stroke="#266EE3" stroke-opacity="0.1" stroke-width="1.6547" stroke-miterlimit="10" stroke-linecap="round" stroke-linejoin="round"/>
<path d="M533.571 150.654L354.507 279.164" stroke="#266EE3" stroke-opacity="0.1" stroke-width="1.6547" stroke-miterlimit="10" stroke-linecap="round" stroke-linejoin="round"/>
<path d="M607.783 97.4766L569.834 124.669" stroke="#266EE3" stroke-opacity="0.1" stroke-width="1.6547" stroke-miterlimit="10" stroke-linecap="round" stroke-linejoin="round"/>
<path d="M385.71 222.16L342.419 252.978" stroke="#266EE3" stroke-opacity="0.1" stroke-width="1.6547" stroke-miterlimit="10" stroke-linecap="round" stroke-linejoin="round"/>
<path d="M650.793 32.2144L430.968 189.73" stroke="#266EE3" stroke-opacity="0.1" stroke-width="1.6547" stroke-miterlimit="10" stroke-linecap="round" stroke-linejoin="round"/>
<path d="M474.539 123.864L259.774 277.754" stroke="#266EE3" stroke-opacity="0.1" stroke-width="1.6547" stroke-miterlimit="10" stroke-linecap="round" stroke-linejoin="round"/>
<path d="M569.272 55.9827L519.516 91.8367" stroke="#266EE3" stroke-opacity="0.1" stroke-width="1.6547" stroke-miterlimit="10" stroke-linecap="round" stroke-linejoin="round"/>
<path d="M432.654 119.231L294.069 218.534" stroke="#266EE3" stroke-opacity="0.1" stroke-width="1.6547" stroke-miterlimit="10" stroke-linecap="round" stroke-linejoin="round"/>
<path d="M574.332 17.7114L472.009 91.2324" stroke="#266EE3" stroke-opacity="0.1" stroke-width="1.6547" stroke-miterlimit="10" stroke-linecap="round" stroke-linejoin="round"/>
<path d="M318.525 166.566L246 218.534" stroke="#266EE3" stroke-opacity="0.1" stroke-width="1.6547" stroke-miterlimit="10" stroke-linecap="round" stroke-linejoin="round"/>
<path d="M511.645 28.1858L371.092 128.899" stroke="#266EE3" stroke-opacity="0.1" stroke-width="1.6547" stroke-miterlimit="10" stroke-linecap="round" stroke-linejoin="round"/>
<path d="M388.521 81.7654L290.696 151.862" stroke="#266EE3" stroke-opacity="0.1" stroke-width="1.6547" stroke-miterlimit="10" stroke-linecap="round" stroke-linejoin="round"/>
<path d="M500.12 1.79883L427.032 54.3713" stroke="#266EE3" stroke-opacity="0.1" stroke-width="1.6547" stroke-miterlimit="10" stroke-linecap="round" stroke-linejoin="round"/>
<path d="M301.659 109.562L263.428 136.755" stroke="#266EE3" stroke-opacity="0.1" stroke-width="1.6547" stroke-miterlimit="10" stroke-linecap="round" stroke-linejoin="round"/>
<path d="M441.65 9.25171L344.949 78.3412" stroke="#266EE3" stroke-opacity="0.1" stroke-width="1.6547" stroke-miterlimit="10" stroke-linecap="round" stroke-linejoin="round"/>
<path d="M321.336 60.8169L298.005 77.5353" stroke="#266EE3" stroke-opacity="0.1" stroke-width="1.6547" stroke-miterlimit="10" stroke-linecap="round" stroke-linejoin="round"/>
<path d="M362.378 31.4087L346.355 42.89" stroke="#266EE3" stroke-opacity="0.1" stroke-width="1.6547" stroke-miterlimit="10" stroke-linecap="round" stroke-linejoin="round"/>
<path d="M598 403C598 568.133 464.133 702 299 702C133.867 702 0 568.133 0 403C0 237.867 133.867 104 299 104C464.133 104 598 237.867 598 403ZM90.1519 403C90.1519 518.343 183.656 611.848 299 611.848C414.343 611.848 507.848 518.343 507.848 403C507.848 287.656 414.343 194.152 299 194.152C183.656 194.152 90.1519 287.656 90.1519 403Z" fill="url(#paint0_linear_30_49)"/>
<path d="M103 104L111.598 127.402L135 136L111.598 144.598L103 168L94.4016 144.598L71 136L94.4016 127.402L103 104Z" fill="#ADD2FF"/>
<defs>
<linearGradient id="paint0_linear_30_49" x1="544" y1="140" x2="299" y2="659" gradientUnits="userSpaceOnUse">
<stop stop-color="#C5D9FF"/>
<stop offset="1" stop-color="#EEF4FF" stop-opacity="0"/>
</linearGradient>
</defs>
</svg>
